<mxfile host="app.diagrams.net" modified="2024-06-07T18:58:07.578Z" agent="Mozilla/5.0 (Linux; Android 14; SM-X510 Build/UP1A.231005.007) AppleWebKit/537.36 (KHTML, like Gecko) Chrome/125.0.6422.165 Safari/537.36 OPX/2.5" version="24.5.2" etag="xzS3zCh5H7lQig0oNPQ5" type="github">
  <diagram name="Pagina-1" id="tJkb0N6KUXNxl21jzB1X">
    <mxGraphModel>
      <root>
        <mxCell id="0" />
        <mxCell id="1" parent="0" />
      </root>
    </mxGraphModel>
  </diagram>
</mxfile>
